<svg xmlns="http://www.w3.org/2000/svg" version="1.1" xmlns:xlink="http://www.w3.org/1999/xlink" width="512" height="512" x="0" y="0" viewBox="0 0 512 512" style="enable-background:new 0 0 512 512" xml:space="preserve" class=""><g><path d="M303.508 324.693a15.962 15.962 0 0 1-12.3-5.758L272 295.885v151.807a16 16 0 0 1-32 0V295.885l-19.208 23.05a16 16 0 1 1-24.583-20.485l47.5-57a16 16 0 0 1 24.584 0l47.5 57a16 16 0 0 1-12.283 26.243zm182.907-103.425a128.434 128.434 0 0 0-53.015-40.946 133.368 133.368 0 0 0-27.388-77.541C386.25 77.05 357.018 58.945 323.7 51.8c-81.28-17.425-168.763 32.165-195.012 110.546l-2.84 8.482a126.526 126.526 0 0 0 .678 253.05h73.227a16 16 0 0 0 0-32h-73.227a94.526 94.526 0 0 1 0-189.052h10.838a16 16 0 0 0 15.172-10.92l6.5-19.4c21.239-63.425 92.1-103.538 157.961-89.416 52.792 11.318 87.445 55.5 84.268 107.445a16 16 0 0 0 11.335 16.294c39.682 11.99 67.4 49.215 67.4 90.523a94.633 94.633 0 0 1-94.526 94.526h-73.227a16 16 0 0 0 0 32h73.227A126.67 126.67 0 0 0 512 297.352a125.165 125.165 0 0 0-25.585-76.084z" fill="#e0e0e0" opacity="1" data-original="#000000" class=""></path></g></svg>